<svg width="139" height="131" viewBox="0 0 139 131" fill="none" xmlns="http://www.w3.org/2000/svg">
<path d="M0.50362 38.324C1.80554 41.2048 5.3512 42.5621 8.14895 41.2602C8.86916 40.9001 12.6641 37.2991 19.2291 30.734C24.7138 25.2217 29.2844 20.7342 29.3952 20.7342C29.5337 20.7342 29.6168 44.4735 29.6168 73.4482L29.6168 126.19L30.2539 127.409C31.2511 129.292 32.8301 130.262 35.1015 130.373C37.3452 130.483 38.9242 129.791 40.2538 128.129L41.1125 127.049L41.1956 73.8914C41.2233 44.6674 41.3618 20.7342 41.4726 20.7342C41.5834 20.7342 46.2094 25.277 51.7772 30.8448C62.6912 41.7588 62.9959 42.0081 65.4612 41.7311C67.1232 41.5372 69.0623 40.3461 69.9764 38.9611C71.0013 37.4098 71.1952 34.8614 70.3919 33.3102C69.6717 31.9252 39.2566 1.59316 37.9269 0.900652C36.4034 -0.318073 34.4644 -0.318073 32.8024 1.01145C31.168 1.84247 0.946829 32.2022 0.39282 33.5318C-0.16119 34.9168 -0.133491 36.9666 0.50362 38.324Z" fill="#17185A"/>
<path d="M68.5036 92.06C69.8055 89.1792 73.3512 87.8219 76.1489 89.1238C76.8692 89.4839 80.6641 93.0849 87.2291 99.65C92.7138 105.162 97.2844 109.65 97.3952 109.65C97.5337 109.65 97.6168 85.9105 97.6168 56.9359L97.6168 4.19418L98.2539 2.97536C99.2511 1.09172 100.83 0.122208 103.102 0.0114068C105.345 -0.099395 106.924 0.593117 108.254 2.25514L109.113 3.33546L109.196 56.4926C109.223 85.7166 109.362 109.65 109.473 109.65C109.583 109.65 114.209 105.107 119.777 99.5392C130.691 88.6252 130.996 88.3759 133.461 88.6529C135.123 88.8468 137.062 90.0379 137.976 91.4229C139.001 92.9742 139.195 95.5226 138.392 97.0738C137.672 98.4588 107.257 128.791 105.927 129.483C104.403 130.702 102.464 130.702 100.802 129.373C99.168 128.542 68.9468 98.1818 68.3928 96.8522C67.8388 95.4672 67.8665 93.4174 68.5036 92.06Z" fill="#17185A"/>
</svg>
