<svg width="509" height="344" viewBox="0 0 509 344" fill="none" xmlns="http://www.w3.org/2000/svg">
<rect x="4" y="4" width="338" height="36" fill="#181B5B" stroke="#181B5B" stroke-width="8"/>
<path d="M175.328 218.828L172.51 221.647L169.682 218.838L28.9032 79.048C25.7362 75.9032 27.9634 70.5 32.4263 70.5H311.586C316.04 70.5 318.271 75.8857 315.121 79.0355L175.328 218.828Z" fill="#181B5B" stroke="#181B5B" stroke-width="8"/>
<rect x="47" y="40" width="243" height="43" fill="#181B5B" stroke="#181B5B" stroke-width="8"/>
<mask id="path-4-outside-1" maskUnits="userSpaceOnUse" x="16" y="36" width="62" height="54" fill="black">
<rect fill="white" x="16" y="36" width="62" height="54"/>
<path fill-rule="evenodd" clip-rule="evenodd" d="M29.5639 44C26.0963 48.0271 24 53.2688 24 59C24 71.7025 34.2975 82 47 82C59.7025 82 70 71.7025 70 59C70 53.2688 67.9037 48.0271 64.4361 44H29.5639Z"/>
</mask>
<path fill-rule="evenodd" clip-rule="evenodd" d="M29.5639 44C26.0963 48.0271 24 53.2688 24 59C24 71.7025 34.2975 82 47 82C59.7025 82 70 71.7025 70 59C70 53.2688 67.9037 48.0271 64.4361 44H29.5639Z" fill="#181B5B"/>
<path d="M29.5639 44V36H25.8953L23.5016 38.78L29.5639 44ZM64.4361 44L70.4984 38.78L68.1047 36H64.4361V44ZM32 59C32 55.2561 33.3612 51.8504 35.6262 49.22L23.5016 38.78C18.8313 44.2038 16 51.2814 16 59H32ZM47 74C38.7157 74 32 67.2843 32 59H16C16 76.1208 29.8792 90 47 90V74ZM62 59C62 67.2843 55.2843 74 47 74V90C64.1208 90 78 76.1208 78 59H62ZM58.3738 49.22C60.6388 51.8504 62 55.2561 62 59H78C78 51.2814 75.1687 44.2038 70.4984 38.78L58.3738 49.22ZM64.4361 36H29.5639V52H64.4361V36Z" fill="#181B5B" mask="url(#path-4-outside-1)"/>
<mask id="path-6-outside-2" maskUnits="userSpaceOnUse" x="266" y="36" width="62" height="54" fill="black">
<rect fill="white" x="266" y="36" width="62" height="54"/>
<path fill-rule="evenodd" clip-rule="evenodd" d="M297 82C309.703 82 320 71.7025 320 59C320 53.2688 317.904 48.0271 314.436 44L279.564 44C276.096 48.0271 274 53.2688 274 59C274 71.7025 284.297 82 297 82Z"/>
</mask>
<path fill-rule="evenodd" clip-rule="evenodd" d="M297 82C309.703 82 320 71.7025 320 59C320 53.2688 317.904 48.0271 314.436 44L279.564 44C276.096 48.0271 274 53.2688 274 59C274 71.7025 284.297 82 297 82Z" fill="#181B5B"/>
<path d="M314.436 44L320.498 38.78L318.105 36H314.436V44ZM279.564 44V36H275.895L273.502 38.78L279.564 44ZM312 59C312 67.2843 305.284 74 297 74V90C314.121 90 328 76.1208 328 59H312ZM308.374 49.22C310.639 51.8504 312 55.2561 312 59H328C328 51.2814 325.169 44.2038 320.498 38.78L308.374 49.22ZM314.436 36L279.564 36V52L314.436 52V36ZM282 59C282 55.2561 283.361 51.8504 285.626 49.22L273.502 38.78C268.831 44.2038 266 51.2814 266 59H282ZM297 74C288.716 74 282 67.2843 282 59H266C266 76.1208 279.879 90 297 90V74Z" fill="#181B5B" mask="url(#path-6-outside-2)"/>
<path d="M172.5 216L314 74.5H30L172.5 216Z" fill="#181B5B"/>
<rect x="51" y="44" width="235" height="35" fill="#181B5B"/>
<path fill-rule="evenodd" clip-rule="evenodd" d="M29.5639 44C26.0963 48.0271 24 53.2688 24 59C24 71.7025 34.2975 82 47 82C59.7025 82 70 71.7025 70 59C70 53.2688 67.9037 48.0271 64.4361 44H29.5639Z" fill="#181B5B"/>
<path fill-rule="evenodd" clip-rule="evenodd" d="M297 82C309.703 82 320 71.7025 320 59C320 53.2688 317.904 48.0271 314.436 44L279.564 44C276.096 48.0271 274 53.2688 274 59C274 71.7025 284.297 82 297 82Z" fill="#181B5B"/>
<path d="M138 165H133.802L134.005 169.193L141.005 314.193L141.188 318H145H202H205.851L205.997 314.152L211.497 169.152L211.655 165H207.5H138Z" fill="#181B5B" stroke="#181B5B" stroke-width="8"/>
<path d="M113.816 158.184L231 157.5L203.816 184.684H140.316L113.816 158.184Z" fill="#181B5B"/>
<path d="M173.5 340C181.789 340 189.486 338.534 195.259 336.002C198.14 334.738 200.722 333.13 202.64 331.142C204.576 329.134 206 326.546 206 323.5C206 320.454 204.576 317.866 202.64 315.858C200.722 313.87 198.14 312.262 195.259 310.998C189.486 308.466 181.789 307 173.5 307C165.211 307 157.514 308.466 151.741 310.998C148.86 312.262 146.278 313.87 144.36 315.858C142.424 317.866 141 320.454 141 323.5C141 326.546 142.424 329.134 144.36 331.142C146.278 333.13 148.86 334.738 151.741 336.002C157.514 338.534 165.211 340 173.5 340Z" fill="white" stroke="#181B5B" stroke-width="8"/>
<path d="M451 69L501.229 156H400.771L451 69Z" fill="#181B5B"/>
<path d="M451 270L501.229 183H400.771L451 270Z" fill="#181B5B"/>
</svg>
