<svg width="250" height="121" viewBox="0 0 250 121" fill="none" xmlns="http://www.w3.org/2000/svg">
<path fill-rule="evenodd" clip-rule="evenodd" d="M4 0H0V4V117V121H4H112H116V117V90H112V113V117H108H8H4V113V8V4H8H108H112V8V32H116V4V0H112H4Z" fill="white"/>
<path d="M47.9531 77V45.7188H57.1914C60.543 45.7188 63.0853 46.4134 64.8184 47.8027C66.5514 49.1777 67.418 51.2116 67.418 53.9043C67.418 55.5228 66.974 56.9336 66.0859 58.1367C65.2122 59.3255 64.0091 60.1777 62.4766 60.6934C64.2956 61.0944 65.7565 61.9896 66.8594 63.3789C67.9766 64.7682 68.5352 66.3724 68.5352 68.1914C68.5352 70.9557 67.64 73.1185 65.8496 74.6797C64.0736 76.2266 61.5957 77 58.416 77H47.9531ZM50.5957 61.9609V74.7656H58.5234C60.7865 74.7656 62.5768 74.1927 63.8945 73.0469C65.2266 71.8867 65.8926 70.2826 65.8926 68.2344C65.8926 66.3008 65.2552 64.7754 63.9805 63.6582C62.7201 62.5267 60.9727 61.9609 58.7383 61.9609H50.5957ZM50.5957 59.748H57.8145C60.0202 59.7051 61.7246 59.1895 62.9277 58.2012C64.1452 57.1986 64.7539 55.7448 64.7539 53.8398C64.7539 51.8346 64.1237 50.3594 62.8633 49.4141C61.6172 48.4544 59.7266 47.9746 57.1914 47.9746H50.5957V59.748ZM91.8242 68.2344H77.623L74.4004 77H71.6289L83.4668 45.7188H85.9805L97.8184 77H95.0684L91.8242 68.2344ZM78.4395 65.9785H90.9863L84.7129 48.9414L78.4395 65.9785ZM120.141 69.3086C120.141 67.5755 119.532 66.2077 118.314 65.2051C117.097 64.1882 114.87 63.2285 111.633 62.3262C108.396 61.4095 106.033 60.4141 104.543 59.3398C102.423 57.8216 101.363 55.8307 101.363 53.3672C101.363 50.9753 102.344 49.0345 104.307 47.5449C106.283 46.041 108.804 45.2891 111.869 45.2891C113.946 45.2891 115.801 45.6901 117.434 46.4922C119.081 47.2943 120.355 48.4115 121.258 49.8438C122.16 51.276 122.611 52.873 122.611 54.6348H119.947C119.947 52.5007 119.217 50.7891 117.756 49.5C116.295 48.1966 114.333 47.5449 111.869 47.5449C109.477 47.5449 107.572 48.082 106.154 49.1562C104.736 50.2161 104.027 51.6055 104.027 53.3242C104.027 54.9141 104.665 56.2103 105.939 57.2129C107.214 58.2155 109.255 59.1035 112.062 59.877C114.87 60.6361 116.997 61.431 118.443 62.2617C119.89 63.0781 120.979 64.0592 121.709 65.2051C122.439 66.3509 122.805 67.7044 122.805 69.2656C122.805 71.7292 121.816 73.7057 119.84 75.1953C117.878 76.6849 115.285 77.4297 112.062 77.4297C109.857 77.4297 107.83 77.0358 105.982 76.248C104.149 75.4603 102.753 74.3574 101.793 72.9395C100.848 71.5215 100.375 69.8958 100.375 68.0625H103.018C103.018 70.2682 103.841 72.0085 105.488 73.2832C107.135 74.5579 109.327 75.1953 112.062 75.1953C114.497 75.1953 116.452 74.6582 117.928 73.584C119.403 72.5098 120.141 71.0846 120.141 69.3086ZM131.742 77H129.1V45.7188H131.742V77ZM162.4 67.2461C162.042 70.5404 160.861 73.0612 158.855 74.8086C156.865 76.556 154.208 77.4297 150.885 77.4297C148.564 77.4297 146.509 76.8496 144.719 75.6895C142.943 74.5293 141.568 72.8893 140.594 70.7695C139.62 68.6354 139.126 66.2005 139.111 63.4648V59.4043C139.111 56.6257 139.598 54.1621 140.572 52.0137C141.546 49.8652 142.943 48.2109 144.762 47.0508C146.595 45.8763 148.701 45.2891 151.078 45.2891C154.43 45.2891 157.072 46.1986 159.006 48.0176C160.954 49.8223 162.085 52.3216 162.4 55.5156H159.736C159.077 50.2018 156.191 47.5449 151.078 47.5449C148.242 47.5449 145.979 48.6048 144.289 50.7246C142.613 52.8444 141.775 55.7734 141.775 59.5117V63.3359C141.775 66.9453 142.592 69.8242 144.225 71.9727C145.872 74.1211 148.092 75.1953 150.885 75.1953C153.649 75.1953 155.733 74.5365 157.137 73.2188C158.54 71.8867 159.407 69.8958 159.736 67.2461H162.4ZM180.512 63.9805H171.424V77H168.76V45.7188H178.922C182.259 45.7188 184.866 46.528 186.742 48.1465C188.618 49.765 189.557 52.028 189.557 54.9355C189.557 56.9408 188.969 58.7096 187.795 60.2422C186.62 61.7747 185.045 62.8346 183.068 63.4219L190.889 76.7207V77H188.074L180.512 63.9805ZM171.424 61.7246H179.523C181.743 61.7246 183.527 61.0944 184.873 59.834C186.219 58.5736 186.893 56.9408 186.893 54.9355C186.893 52.7298 186.191 51.0182 184.787 49.8008C183.383 48.5833 181.414 47.9746 178.879 47.9746H171.424V61.7246ZM213.641 68.2344H199.439L196.217 77H193.445L205.283 45.7188H207.797L219.635 77H216.885L213.641 68.2344ZM200.256 65.9785H212.803L206.529 48.9414L200.256 65.9785ZM224.254 77V45.7188H232.998C235.562 45.7188 237.861 46.306 239.895 47.4805C241.928 48.6406 243.511 50.3092 244.643 52.4863C245.788 54.6634 246.361 57.1413 246.361 59.9199V62.7988C246.361 65.5918 245.796 68.0697 244.664 70.2324C243.533 72.3952 241.936 74.0638 239.873 75.2383C237.825 76.4128 235.469 77 232.805 77H224.254ZM226.896 47.9746V74.7656H232.826C236.12 74.7656 238.763 73.6771 240.754 71.5C242.745 69.3086 243.74 66.3509 243.74 62.627V59.877C243.74 56.2819 242.759 53.403 240.797 51.2402C238.835 49.0775 236.249 47.9889 233.041 47.9746H226.896Z" fill="white"/>
</svg>
